{"title":"Knucklehead.2010.DVDRiP.XviD.MULTISUB-Zen_Bud","uid":5949945,"size":781382372,"categoryP":"video","categoryS":"movies","magnet":"?xt=urn:btih:eb1a4876d57a037a407c9a4e214b11370b63fa90&amp;dn=Knucklehead.2010.DVDRiP.XviD.MULTISUB-Zen_Bud&amp;tr=udp%3A%2F%2Ftracker.openbittorrent.com%3A80&amp;tr=udp%3A%2F%2Fopen.demonii.com%3A1337&amp;tr=udp%3A%2F%2Ftracker.coppersurfer.tk%3A6969&amp;tr=udp%3A%2F%2Fexodus.desync.com%3A6969","seeders":0,"leechers":0,"uploader":"Zen_Bud","files":-1,"time":1289493590,"description":"********* Knucklehead.2010.DVDRiP.XviD.MULTISUB-Zen_Bud *********\n\nFormat                           : AVI\nFormat profile                   : OpenDML\nFile size                        : 700 MiB\nDuration                         : 1h 36mn\nOverall bit rate                 : 1 019 Kbps\nWriting application              : AVI-Mux GUI 1.17.8.3\n\nVideo\n\nFormat                           : MPEG-4 Visual\nCodec ID/Hint                    : XviD\nDuration                         : 1h 36mn\nBit rate                         : 887 Kbps\nWidth                            : 720 pixels\nHeight                           : 552 pixels\nDisplay aspect ratio             : 1.855\nStream size                      : 609 MiB (87%)\nWriting library                  : XviD 1.1.2 (UTC 2006-11-01)\n\nAudio\n\nFormat                           : MPEG Audio\nCodec ID/Hint                    : MP3\nDuration                         : 1h 36mn\nBit rate                         : 128 Kbps\nChannel(s)                       : 2 channels\nSampling rate                    : 48.0 KHz\nStream size                      : 87.9 MiB (13%)\nLanguage                         : English\n\nText #1\nLanguage                         : English\n\nText #2\nLanguage                         : Dutch\n\nText #3\nLanguage                         : Greek\n\nText #4\nLanguage                         : Norwegian\n\nText #5\nLanguage                         : Swedish\n\nText #6\nLanguage                         : Danish\n\nText #7\nLanguage                         : Finnish\n\nText #8\nLanguage                         : Italian\n\nText #9\nLanguage                         : German\n\nText #10\nLanguage                         : French\n\n\n\nAfter con artist Eddie Sullivan (Feuerstein) incurs a large debt with a local criminal ringleader, he creates a get-rich-quick scheme and enlists a sweet gentle giant named Walter (Wight) as his unwitting accomplice. Walter's orphanage -- the only home he's ever known -- also needs funds desperately...\n","torrent":{"xt":"urn:btih:eb1a4876d57a037a407c9a4e214b11370b63fa90","amp;dn":"Knucklehead.2010.DVDRiP.XviD.MULTISUB-Zen_Bud","amp;tr":["udp%3A%2F%2Ftracker.openbittorrent.com%3A80","udp%3A%2F%2Fopen.demonii.com%3A1337","udp%3A%2F%2Ftracker.coppersurfer.tk%3A6969","udp%3A%2F%2Fexodus.desync.com%3A6969"],"infoHash":"eb1a4876d57a037a407c9a4e214b11370b63fa90","infoHashBuffer":{"type":"Buffer","data":[235,26,72,118,213,122,3,122,64,124,154,78,33,75,17,55,11,99,250,144]},"announce":[],"urlList":[]}}